# xmcd
#
# Track frame offsets: 
#        150
#        21239
#        28209
#        43751
#        54097
#        66369
#        94659
#        103348
#        112784
#        126652
#        138192
#        148902
#        166522
#        183989
#        194600
#        202663
#        226099
#        240134
#        248811
#
# Disc length: 3430 seconds
#
# Revision: 9
# Processed by: cddbd v1.5.2PL0 Copyright (c) Steve Scherf et al.
# Submitted via: ExactAudioCopy v0.99pb5
#
DISCID=000d6413
DTITLE=Edvard Grieg - Piano Works Vol.3 - Lyrische Stücke III  (Håkon 
DTITLE=Austbø, piano) 
DYEAR=2001
DGENRE=Classical
TTITLE0=Book VIII, Op.65 - Aus jungen Tagen
TTITLE1=Book VIII, Op.65 - Lied des Bauern
TTITLE2=Book VIII, Op.65 - Schwermut
TTITLE3=Book VIII, Op.65 - Salon
TTITLE4=Book VIII, Op.65 - Im Balladenton
TTITLE5=Book VIII, Op.65 - Hochzeitstag auf Troldhaugen
TTITLE6=Book IX, Op.68 - Matrosenlied
TTITLE7=Book IX, Op.68 - Grossmutters Menuett
TTITLE8=Book IX, Op.68 - Zu deinen Füssen
TTITLE9=Book IX, Op.68 - Abend im Hochgebirge
TTITLE10=Book IX, Op.68 - An der Wiege
TTITLE11=Book IX, Op.68 - Valse mélancholique
TTITLE12=Book X, Op.71 - Es war einmal
TTITLE13=Book X, Op.71 - Sommerabend
TTITLE14=Book X, Op.71 - Kobold
TTITLE15=Book X, Op.71 - Waldesstille
TTITLE16=Book X, Op.71 - Norwegischer Tanz
TTITLE17=Book X, Op.71 - Vorüber
TTITLE18=Book X, Op.71 - Nachklänge
EXTD=YEAR: 2001
EXTT0=
EXTT1=
EXTT2=
EXTT3=
EXTT4=
EXTT5=
EXTT6=
EXTT7=
EXTT8=
EXTT9=
EXTT10=
EXTT11=
EXTT12=
EXTT13=
EXTT14=
EXTT15=
EXTT16=
EXTT17=
EXTT18=
PLAYORDER=
